<?xml version="1.0" encoding="UTF-8" standalone="no"?>
<!DOCTYPE svg PUBLIC "-//W3C//DTD SVG 1.1//EN" "http://www.w3.org/Graphics/SVG/1.1/DTD/svg11.dtd">
<svg width="100%" height="100%" viewBox="0 0 512 643" version="1.1" xmlns="http://www.w3.org/2000/svg" xmlns:xlink="http://www.w3.org/1999/xlink" xml:space="preserve" xmlns:serif="http://www.serif.com/" style="fill-rule:evenodd;clip-rule:evenodd;stroke-linejoin:round;stroke-miterlimit:2;">
    <g transform="matrix(1,0,0,1,-14795.5,-12938)">
        <g id="Artboard3" transform="matrix(0.854894,0,0,1,2933.98,-0.656037)">
            <rect x="13874.8" y="12938.7" width="598.038" height="642.073" style="fill:none;"/>
            <g transform="matrix(1.39118,0,0,1.18931,-198.15,-692.051)">
                <path d="M10293.1,11857.6C10293.7,11858.1 10294.2,11858.6 10294.8,11859C10340.8,11896.4 10351.2,11943.8 10358.4,11964.6C10362.1,11975.6 10356.3,11987.6 10345.3,11991.3C10334.3,11995.1 10322.4,11989.3 10318.6,11978.3C10312.8,11961.3 10305.7,11922.1 10268.3,11891.7C10242.9,11871.1 10204,11854.9 10143.7,11851.1C10132.7,11850.4 10124.1,11841.4 10124,11830.4C10123.8,11819.4 10132.2,11810.2 10143.1,11809.2C10211.1,11803.2 10223.8,11804.8 10250,11779.4C10252.4,11777 10270.6,11767.4 10310.9,11683C10315.9,11672.6 10328.5,11668.1 10339,11673.1C10349.4,11678.1 10353.9,11690.7 10348.9,11701.2C10307.2,11788.5 10275,11813.6 10273.3,11815.2C10310.9,11816.5 10348.5,11816.2 10381.7,11811.8C10416.5,11807.1 10446.3,11798.6 10463.3,11779.7C10480.5,11760.5 10488.4,11732.6 10492.3,11699C10498.9,11642.1 10493.3,11569.8 10490.1,11491.3C10489.6,11479.7 10498.7,11469.9 10510.3,11469.4C10521.8,11468.9 10531.6,11478 10532.1,11489.6C10535.4,11570.6 10540.9,11645.1 10534,11703.9C10529,11747.4 10516.9,11782.9 10494.6,11807.8C10472,11832.9 10433.6,11847.3 10387.2,11853.5C10358.2,11857.3 10325.9,11858.2 10293.1,11857.6Z"/>
            </g>
        </g>
    </g>
</svg>
