<?xml version="1.0" encoding="UTF-8" standalone="no"?>
<!DOCTYPE svg PUBLIC "-//W3C//DTD SVG 1.1//EN" "http://www.w3.org/Graphics/SVG/1.1/DTD/svg11.dtd">
<svg width="100%" height="100%" viewBox="0 0 965 1143" version="1.1" xmlns="http://www.w3.org/2000/svg" xmlns:xlink="http://www.w3.org/1999/xlink" xml:space="preserve" xmlns:serif="http://www.serif.com/" style="fill-rule:evenodd;clip-rule:evenodd;stroke-linejoin:round;stroke-miterlimit:2;">
    <g transform="matrix(1,0,0,1,-16275.6,-12438.3)">
        <g id="Artboard3" transform="matrix(1.61243,0,0,1.78014,-6096.58,-10594.2)">
            <rect x="13874.8" y="12938.7" width="598.038" height="642.073" style="fill:none;"/>
            <g transform="matrix(0.737588,0,0,0.668102,6718.57,5556.6)">
                <path d="M9877.59,11866.3C9878.16,11866.7 9878.74,11867.2 9879.3,11867.6C9925.33,11905 9935.69,11952.4 9942.86,11973.2C9946.63,11984.2 9940.79,11996.2 9929.82,11999.9C9918.84,12003.7 9906.87,11997.9 9903.1,11986.9C9897.27,11969.9 9890.2,11930.7 9852.79,11900.3C9827.45,11879.7 9788.54,11863.5 9728.16,11859.7C9717.19,11859 9708.61,11850 9708.47,11839C9708.33,11828 9716.68,11818.8 9727.63,11817.8C9795.61,11811.8 9808.32,11813.5 9834.47,11788C9836.93,11785.6 9855.13,11776 9895.45,11691.6C9900.45,11681.2 9913.01,11676.7 9923.48,11681.7C9933.94,11686.7 9938.38,11699.3 9933.38,11709.8C9891.66,11797.1 9859.55,11822.2 9857.8,11823.8C9895.37,11825.1 9922.32,11821.5 9966.16,11820.4C10001.3,11819.5 10399.6,11825.4 10443.1,11823.9C10460.9,11823.3 10456.4,11782.7 10456.9,11748C10457.8,11690.6 10465.5,11163.8 10462.3,11085.3C10461.9,11073.7 10470.9,11063.9 10482.5,11063.4C10494.1,11063 10503.9,11072 10504.3,11083.6C10507.6,11164.6 10500.4,11693.7 10498.7,11752.8C10497.4,11798.5 10506.4,11863.7 10455.3,11863.3C10387.4,11862.8 10018.4,11859.8 9971.71,11862.1C9937.91,11863.7 9910.38,11866.8 9877.59,11866.3Z"/>
            </g>
        </g>
    </g>
</svg>
