<?xml version="1.0" encoding="UTF-8" standalone="no"?>
<!DOCTYPE svg PUBLIC "-//W3C//DTD SVG 1.1//EN" "http://www.w3.org/Graphics/SVG/1.1/DTD/svg11.dtd">
<svg width="100%" height="100%" viewBox="0 0 705 533" version="1.1" xmlns="http://www.w3.org/2000/svg" xmlns:xlink="http://www.w3.org/1999/xlink" xml:space="preserve" xmlns:serif="http://www.serif.com/" style="fill-rule:evenodd;clip-rule:evenodd;stroke-linejoin:round;stroke-miterlimit:2;">
    <g transform="matrix(1,0,0,1,-13900.8,-11532.5)">
        <g id="Artboard2" transform="matrix(0.947757,0,0,1.02214,762.222,-267.751)">
            <rect x="13862.8" y="11544.7" width="743.437" height="521.187" style="fill:none;"/>
            <g transform="matrix(0.713478,0,0,0.106315,6335.96,10644.3)">
                <path d="M11232,11286.7C11183.8,11296.4 11136.5,11304.6 11098.9,11307.7C11021.5,11314.1 10742.5,11241.6 10624.9,11257.1C10588.2,11262 10557.8,11080.4 10557,10851.9C10556.2,10623.5 10585.4,10434 10622.1,10429.1C10739.9,10413.5 11019.6,10486 11097.2,10479.5C11134.9,10476.4 11182.5,10468.2 11231,10458.5C11191.5,10318.5 11153.6,10166.3 11121.9,10008.4C11056.2,9681.08 11017.8,9306.28 11016.6,8974.75C11015.8,8746.26 11044.9,8556.55 11081.6,8551.38C11118.3,8546.21 11148.8,8727.52 11149.7,8956.01C11149.9,9029.37 11160.1,9093.06 11171,9167.45C11191.3,9305.56 11219.7,9439.64 11251.1,9567.42C11354.5,9986.85 11491.2,10326.7 11533.3,10403.3C11563.1,10457.5 11582.9,10632.1 11581.1,10824.6C11579.3,11017 11556.4,11176.4 11525.9,11209C11468.8,11269.9 11472.2,11325.5 11357.8,11735.8C11312.1,11899.6 11217.5,12406.9 11200,12987.2C11193.2,13211.8 11158.4,13359.9 11122.3,13317.8C11086.2,13275.6 11062.4,13059 11069.1,12834.4C11087.9,12211.4 11166.3,11635.6 11232,11286.7Z"/>
            </g>
        </g>
    </g>
</svg>
