<?xml version="1.0" encoding="UTF-8" standalone="no"?>
<!DOCTYPE svg PUBLIC "-//W3C//DTD SVG 1.1//EN" "http://www.w3.org/Graphics/SVG/1.1/DTD/svg11.dtd">
<svg width="100%" height="100%" viewBox="0 0 600 600" version="1.1" xmlns="http://www.w3.org/2000/svg" xmlns:xlink="http://www.w3.org/1999/xlink" xml:space="preserve" xmlns:serif="http://www.serif.com/" style="fill-rule:evenodd;clip-rule:evenodd;stroke-linejoin:round;stroke-miterlimit:2;">
    <g transform="matrix(1,0,0,1,-17875,-12774)">
        <g id="Artboard3" transform="matrix(1.00328,0,0,0.934474,3954.69,683.169)">
            <rect x="13874.8" y="12938.7" width="598.038" height="642.073" style="fill:none;"/>
            <clipPath id="_clip1">
                <rect x="13874.8" y="12938.7" width="598.038" height="642.073"/>
            </clipPath>
            <g clip-path="url(#_clip1)">
                <g transform="matrix(1.00217,0,2.2865e-16,1.07595,-4048.73,-735.101)">
                    <path d="M18183,12708.6C18347.7,12708.6 18481.4,12842.3 18481.4,13006.9C18481.4,13171.6 18347.7,13305.3 18183,13305.3C18018.3,13305.3 17884.6,13171.6 17884.6,13006.9C17884.6,12842.3 18018.3,12708.6 18183,12708.6ZM18261.2,13180.9C18261.9,13181.4 18262.7,13181.7 18263.5,13181.7C18265.5,13181.5 18267,13179.9 18266.8,13178C18266.8,13177 18266.7,13175.9 18266.5,13174.5C18324.7,13102.1 18324.2,13098.9 18364.9,13009.6C18365.6,13008 18365.1,13006.2 18363.7,13005.2C18280.4,12949.5 18206.7,12894.4 18155.6,12862.7C18131.1,12847.5 18130.4,12849 18108.5,12830.1C18108.1,12829.8 18107.8,12829.6 18107.4,12829.4C18107.3,12829.4 18107.3,12829.3 18107.2,12829.3C18105.6,12828.2 18103.4,12828.6 18102.3,12830.1C18011.3,12959.8 18011,12959.3 17991.7,12993.9C17990.8,12995.5 17991.3,12997.4 17992.7,12998.5C18123.3,13092.5 18120.5,13095.8 18257.2,13181.1C18258.5,13181.9 18260.1,13181.8 18261.2,13180.9ZM18265.2,13165C18260.4,13134.6 18246.8,13067.4 18238.6,13037C18237.2,13031.7 18235.9,13027.5 18234.8,13024.7C18262.8,13022.8 18282.6,13018 18299.8,13014.1C18318.7,13009.9 18334.5,13006.8 18355.4,13010.4C18355.9,13010.5 18356.4,13010.4 18356.9,13010.3C18319.2,13093.2 18317.9,13099.2 18265.2,13165ZM18346.6,13002.2C18329.4,13000.7 18315,13003.6 18298.3,13007.3C18269.9,13013.7 18234.6,13022.6 18165.8,13016.2C18154.7,12940.7 18125.4,12867.9 18112.1,12842.3C18126.9,12854.5 18130.4,12855.3 18151.9,12868.6C18200.3,12898.7 18268.8,12949.6 18346.6,13002.2ZM18103.3,12840.9C18112,12855.4 18133.5,12905.1 18148.2,12964.2C18147.5,12964.2 18146.7,12964.3 18145.6,12964.5C18139.7,12965.3 18126.3,12967.8 18081.1,12972.7C18059.8,12975 18021.9,12983.8 18002.3,12989.3C18017.4,12962.5 18024.7,12952.9 18103.3,12840.9ZM18002.2,12996.6C18020.7,12991.3 18060.1,12982 18081.9,12979.6C18120.7,12975.4 18136.2,12973 18143.6,12971.8C18147,12971.3 18148.5,12971.1 18149.9,12971.1C18153.7,12986.9 18156.9,13003.4 18159.2,13019.9C18159.5,13021.5 18160.7,13022.7 18162.4,13022.9C18188.1,13025.4 18209.3,13025.9 18227.3,13025.1C18227.3,13025.1 18227.4,13025.2 18227.5,13025.3C18227.6,13025.6 18228.1,13026.7 18228.5,13027.7C18229.5,13030.3 18230.6,13034.1 18231.9,13038.8C18240.7,13071.4 18255.9,13147.1 18259.2,13172.4C18258.9,13172.8 18258.6,13173.2 18258.3,13173.5C18126.3,13091.1 18126.4,13086.2 18002.2,12996.6ZM18199.4,12754.9L18198.5,12761.4C18206.1,12762.6 18210.2,12768.2 18209.1,12775.8L18202.5,12822.2C18201.6,12828.3 18202.8,12834.1 18206.3,12838.5C18210.2,12843.6 18217,12846.6 18226.4,12845.2L18227.6,12836.8C18216,12839.1 18208.5,12833.9 18210.3,12820.9L18218.5,12764.3L18235.9,12766.8L18236.9,12760.3L18232,12759.6C18224.3,12758.5 18220.1,12752.9 18221.2,12745.2L18224.6,12721.5L18224.1,12721.4L18216.2,12725.9L18213.6,12744.1C18212.5,12751.7 18207,12755.9 18199.4,12754.9ZM18058.2,13231.3C18070.3,13236 18082.7,13231.5 18085.4,13230.2C18088.8,13228.5 18092.2,13229.4 18093,13232.6C18093.9,13236.4 18097.2,13246.5 18109.7,13251.4C18121.9,13256.1 18133.7,13251.6 18138.7,13248.6C18141.7,13246.9 18144.5,13249.1 18143.3,13252.2L18140.1,13260.5L18147.2,13263.2L18178,13184.1L18170.9,13181.4L18154.9,13222.3C18147.1,13242.4 18127.1,13250.3 18114,13245.2C18102.2,13240.6 18099.8,13231.9 18105.2,13217.6L18125.8,13163.8L18118.7,13161L18102.7,13202C18094.9,13222.1 18075.5,13230.2 18062.4,13225.1C18050.7,13220.6 18048.3,13211.8 18053.7,13197.5L18074.2,13143.7L18067.1,13141L18044.7,13198.4C18038.6,13214 18044.2,13225.9 18058.2,13231.3ZM18301.1,12782.4C18281.8,12772.3 18259.9,12781 18247.5,12804.8C18234.6,12829.3 18241.5,12851.1 18262.1,12861.8C18275.9,12869 18293.1,12867.7 18302.8,12855.3L18298.1,12849.8C18290.5,12859.6 18277.1,12861.6 18265.4,12855.5C18259.9,12852.7 18255.8,12848.9 18253.1,12844.4C18247.2,12834.8 18247.7,12821.9 18255,12807.9L18305.4,12834.3C18309.5,12836.4 18312.6,12836.7 18315.9,12830.2C18323.2,12814.1 18322.6,12793.6 18301.1,12782.4ZM18277.9,12785.8C18284.5,12783.7 18291.4,12784.8 18298.6,12788.6C18312.4,12795.8 18315.9,12811.2 18307.3,12827.6L18274.8,12810.6C18257.2,12801.5 18268.5,12788.6 18277.9,12785.8ZM18398,12873.4L18364.7,12874.5C18358.2,12874.6 18354.9,12870.3 18356.7,12864.2L18366.4,12832.5L18360,12824.3L18345.8,12875L18292.9,12876.2L18298.7,12883.7L18332.9,12882.7C18339.7,12882.3 18342.8,12886.6 18340.9,12893L18331.4,12926L18337.3,12933.5L18348.3,12893.7C18350.7,12885.4 18353.5,12882.4 18363.2,12882.2L18404.4,12881.6L18398,12873.4ZM17979.2,13158C17992.3,13175.4 18015.8,13177.1 18037.3,13161C18059.4,13144.4 18062.7,13121.9 18048.7,13103.2C18039.4,13090.7 18023.3,13084.5 18009.2,13091.5L18011.1,13098.5C18022.2,13093 18035.1,13096.9 18043,13107.5C18054.6,13123 18050.3,13141.1 18031.8,13154.9L17997.8,13109.4C17995,13105.7 17992.4,13104.1 17986.5,13108.5C17973,13119.9 17964.7,13138.6 17979.2,13158ZM18001.6,13165C17994.8,13164 17989,13160 17984.1,13153.5C17974.8,13141 17978.3,13125.6 17993.2,13114.5L18015.1,13143.9C18027,13159.8 18011.3,13166.5 18001.6,13165ZM18408.2,12907.9C18410.7,12915.2 18407.6,12921.4 18400.3,12924L18356,12939.3C18350.3,12941.4 18345.6,12945.1 18343.3,12950.2C18340.6,12956 18341,12963.4 18346.6,12971.2L18354.6,12968.4C18347.3,12959.1 18348.4,12950.1 18360.8,12945.8L18414.8,12927L18420.6,12943.7L18426.9,12941.5L18425.3,12936.9C18422.7,12929.5 18425.7,12923.2 18433.1,12920.7L18455.7,12912.8L18455.5,12912.3L18447.9,12907.4L18430.6,12913.5C18423.3,12916 18417,12913 18414.5,12905.8L18408.2,12907.9Z"/>
                </g>
            </g>
        </g>
    </g>
</svg>
